HIERARCHY
ROOT Hips
{
	OFFSET 53.316898 -11.186609 58.477798
	CHANNELS 6 Xposition Yposition Zposition Xrotation Yrotation Zrotation
	JOINT spine
	{
		OFFSET 0.000000 -0.467660 8.132500
		CHANNELS 3 Xrotation Yrotation Zrotation
		JOINT spine1
		{
			OFFSET 0.000000 -0.000002 10.349800
			CHANNELS 3 Xrotation Yrotation Zrotation
			JOINT spine2
			{
				OFFSET 0.000000 -0.000002 9.916992
				CHANNELS 3 Xrotation Yrotation Zrotation
				JOINT Neck
				{
					OFFSET 0.000000 -1.213903 25.460999
					CHANNELS 3 Xrotation Yrotation Zrotation
					JOINT Head
					{
						OFFSET 0.000000 -0.000002 7.692451
						CHANNELS 3 Xrotation Yrotation Zrotation
						End Site
						{
							OFFSET 0.000000 6.140627 18.620003
						}
					}
				}
				JOINT RightShoulder
				{
					OFFSET -4.175751 0.581443 10.709602
					CHANNELS 3 Xrotation Yrotation Zrotation
					JOINT RightArm
					{
						OFFSET 0.000000 -0.000002 14.046600
						CHANNELS 3 Xrotation Yrotation Zrotation
						JOINT RightArmRoll
						{
							OFFSET 0.000000 -0.000001 7.090988
							CHANNELS 3 Xrotation Yrotation Zrotation
							JOINT RightForeArm
							{
								OFFSET 0.000000 -0.000004 20.653496
								CHANNELS 3 Xrotation Yrotation Zrotation
								JOINT RightForeArmRoll
								{
									OFFSET 0.000000 -0.000001 7.957184
									CHANNELS 3 Xrotation Yrotation Zrotation
									JOINT RightHand
									{
										OFFSET 0.000000 -0.000003 15.968292
										CHANNELS 3 Xrotation Yrotation Zrotation
										End Site
										{
											OFFSET 0.000000 0.000000 0.100006
										}
									}
								}
							}
						}
					}
				}
				JOINT LeftShoulder
				{
					OFFSET 4.175751 0.581443 10.709602
					CHANNELS 3 Xrotation Yrotation Zrotation
					JOINT LeftArm
					{
						OFFSET 0.000000 -0.000002 14.046600
						CHANNELS 3 Xrotation Yrotation Zrotation
						JOINT LeftArmRoll
						{
							OFFSET 0.000000 -0.000001 7.090981
							CHANNELS 3 Xrotation Yrotation Zrotation
							JOINT LeftForeArm
							{
								OFFSET 0.000000 -0.000004 20.653503
								CHANNELS 3 Xrotation Yrotation Zrotation
								JOINT LeftForeArmRoll
								{
									OFFSET 0.000000 -0.000001 7.957184
									CHANNELS 3 Xrotation Yrotation Zrotation
									JOINT LeftHand
									{
										OFFSET 0.000000 -0.000003 15.968292
										CHANNELS 3 Xrotation Yrotation Zrotation
										End Site
										{
											OFFSET 0.000000 0.000000 0.100006
										}
									}
								}
							}
						}
					}
				}
			}
		}
	}
	JOINT RightUpLeg
	{
		OFFSET -7.208340 1.108840 -1.321819
		CHANNELS 3 Xrotation Yrotation Zrotation
		JOINT RightUpLegRoll
		{
			OFFSET 0.000000 -0.000003 18.723797
			CHANNELS 3 Xrotation Yrotation Zrotation
			JOINT RightLeg
			{
				OFFSET 0.000000 0.000004 -23.186600
				CHANNELS 3 Xrotation Yrotation Zrotation
				JOINT RightLegRoll
				{
					OFFSET 0.000000 -0.000004 23.262398
					CHANNELS 3 Xrotation Yrotation Zrotation
					JOINT RightFoot
					{
						OFFSET 0.000000 -0.000003 19.362099
						CHANNELS 3 Xrotation Yrotation Zrotation
						JOINT RightToeBase
						{
							OFFSET 0.000000 -0.000003 16.185699
							CHANNELS 3 Xrotation Yrotation Zrotation
							End Site
							{
								OFFSET 0.006859 0.903521 7.838631
							}
						}
					}
				}
			}
		}
	}
	JOINT LeftUpLeg
	{
		OFFSET 7.208340 1.108840 -1.321819
		CHANNELS 3 Xrotation Yrotation Zrotation
		JOINT LeftUpLegRoll
		{
			OFFSET 0.000000 -0.000003 18.723904
			CHANNELS 3 Xrotation Yrotation Zrotation
			JOINT LeftLeg
			{
				OFFSET 0.000000 -0.000004 23.186501
				CHANNELS 3 Xrotation Yrotation Zrotation
				JOINT LeftLegRoll
				{
					OFFSET 0.000000 -0.000004 23.477501
					CHANNELS 3 Xrotation Yrotation Zrotation
					JOINT LeftFoot
					{
						OFFSET 0.000000 -0.000003 19.147003
						CHANNELS 3 Xrotation Yrotation Zrotation
						JOINT LeftToeBase
						{
							OFFSET 0.000000 -0.000003 16.185699
							CHANNELS 3 Xrotation Yrotation Zrotation
							End Site
							{
								OFFSET -0.030746 0.903521 7.838623
							}
						}
					}
				}
			}
		}
	}
}
MOTION
Frames: 7
Frame Time: 0.041667
51.911594 -19.796215 67.941101 27.419176 0.660455 0.689854 2.964670 -1.049514 0.029463 9.931648 -2.091745 0.118247 11.577214 -2.090192 0.143309 10.054666 12.654520 -11.795872 19.529183 -9.679746 -10.368527 -12.623349 -39.761929 -14.003582 -43.031940 -138.974774 -72.839705 0.000002 0.000027 0.000019 74.082855 -6.797549 1.686981 0.000006 0.000006 -3.000004 -5.000200 -7.999651 0.000044 -11.757900 56.180369 13.751496 -54.422319 130.088220 84.681730 -0.000003 -0.000019 0.000007 70.722162 0.475682 -0.291102 0.000002 -0.000007 3.006592 -5.000224 7.998985 -0.000132 -97.157802 -172.701456 3.226697 -179.999991 0.000005 -0.828005 104.916733 -4.274474 -5.861169 0.000003 -0.000001 1.509690 70.685962 8.462680 -2.244829 25.456955 -7.355614 0.000010 -97.319903 170.127868 -0.633170 -0.000019 -0.000003 -0.671350 -75.164026 1.732326 4.178083 -0.000002 0.000002 -1.525070 69.392051 -6.531712 -3.045628 25.456926 7.355233 0.000002 
51.950298 -19.726711 67.848206 27.314669 0.626769 0.707197 2.966235 -1.047086 0.028927 9.935051 -2.087025 0.117836 11.580575 -2.085484 0.142844 10.040362 12.695003 -11.794850 19.552841 -9.709654 -10.361929 -12.625812 -39.726901 -14.004970 -42.995477 -138.881474 -72.919024 0.000002 0.000026 0.000018 74.270254 -6.739032 1.644938 0.000009 0.000008 -3.000001 -5.000204 -7.999652 0.000039 -11.743331 56.170687 13.733507 -54.402645 130.067197 84.736420 -0.000001 -0.000019 0.000009 70.807068 0.444086 -0.271586 0.000002 -0.000008 3.006589 -5.000220 7.998984 -0.000129 -97.232920 -172.674504 3.239477 -179.999991 0.000005 -0.830000 104.771530 -4.228994 -5.849564 0.000003 -0.000000 1.519310 70.666831 8.470042 -2.261113 25.456959 -7.355615 0.000010 -97.373929 170.144384 -0.670860 -0.000020 -0.000005 -0.675536 -75.294585 1.701892 4.168049 -0.000002 0.000002 -1.531590 69.360311 -6.533134 -3.043359 25.456930 7.355233 0.000003 
51.945995 -19.672710 67.731598 27.207872 0.592843 0.724405 2.968134 -1.044717 0.028332 9.939145 -2.082429 0.117354 11.584651 -2.080889 0.142304 10.025750 12.736388 -11.793313 19.577342 -9.739789 -10.354767 -12.628355 -39.691370 -14.006431 -42.958533 -138.788898 -72.998009 0.000004 0.000026 0.000022 74.457094 -6.680715 1.602326 0.000007 0.000006 -3.000001 -5.000202 -7.999651 0.000042 -11.728059 56.161961 13.714710 -54.384029 130.048141 84.789784 -0.000002 -0.000019 0.000009 70.887432 0.413767 -0.252805 0.000003 -0.000006 3.006589 -5.000223 7.998987 -0.000126 -97.304808 -172.649164 3.251337 -179.999991 0.000004 -0.831994 104.628219 -4.182749 -5.835904 0.000003 -0.000001 1.528960 70.645917 8.477324 -2.276971 25.456955 -7.355613 0.000010 -97.424568 170.160803 -0.707338 -0.000020 -0.000004 -0.679725 -75.423744 1.671434 4.157873 -0.000002 0.000002 -1.537980 69.328210 -6.534410 -3.041484 25.456926 7.355237 0.000002 
51.916695 -19.604309 67.615898 27.099194 0.558768 0.741300 2.970288 -1.042388 0.027688 9.943767 -2.077927 0.116795 11.589317 -2.076406 0.141696 10.011223 12.778656 -11.791383 19.602180 -9.770182 -10.347123 -12.630955 -39.655528 -14.007955 -42.922032 -138.697482 -73.077335 0.000005 0.000027 0.000020 74.642110 -6.622993 1.559534 0.000008 0.000005 -3.000002 -5.000200 -7.999651 0.000043 -11.712595 56.154277 13.695752 -54.368074 130.029685 84.844002 -0.000005 -0.000019 0.000009 70.963562 0.384643 -0.234768 0.000001 -0.000006 3.006589 -5.000224 7.998984 -0.000130 -97.373895 -172.625327 3.263032 -179.999991 0.000005 -0.834001 104.486642 -4.136260 -5.822061 0.000003 -0.000001 1.538630 70.623644 8.484539 -2.292236 25.456957 -7.355613 0.000011 -97.472393 170.176731 -0.745359 -0.000018 -0.000004 -0.683909 -75.551407 1.641039 4.147569 -0.000002 0.000002 -1.544279 69.295472 -6.535621 -3.039938 25.456926 7.355235 0.000002 
51.935699 -19.548811 67.509804 26.988828 0.524640 0.757707 2.972624 -1.040109 0.027012 9.948743 -2.073552 0.116166 11.594292 -2.072039 0.141014 9.997163 12.821902 -11.789165 19.627134 -9.800740 -10.339166 -12.633634 -39.619687 -14.009569 -42.886409 -138.607433 -73.157610 0.000006 0.000026 0.000019 74.824196 -6.566066 1.516567 0.000009 0.000008 -3.000000 -5.000199 -7.999653 0.000039 -11.697426 56.147563 13.677182 -54.352709 130.012897 84.896362 -0.000005 -0.000019 0.000009 71.035648 0.356664 -0.217465 0.000003 -0.000005 3.006588 -5.000220 7.998983 -0.000133 -97.440476 -172.602910 3.275059 -179.999991 0.000005 -0.835997 104.346876 -4.089314 -5.808106 0.000003 -0.000001 1.548279 70.600387 8.491729 -2.307223 25.456957 -7.355615 0.000009 -97.517657 170.192072 -0.782168 -0.000021 -0.000004 -0.688081 -75.677704 1.610769 4.137211 -0.000002 0.000002 -1.550491 69.262278 -6.536743 -3.038503 25.456930 7.355236 0.000003 
51.918396 -19.483910 67.395309 26.877163 0.490557 0.773477 2.975049 -1.037869 0.026315 9.953918 -2.069303 0.115470 11.599460 -2.067798 0.140267 9.983951 12.865902 -11.786707 19.651711 -9.831502 -10.330884 -12.636344 -39.583938 -14.011241 -42.851289 -138.520594 -73.237769 0.000004 0.000025 0.000021 75.002253 -6.510207 1.473837 0.000007 0.000007 -3.000004 -5.000202 -7.999650 0.000041 -11.683093 56.141976 13.659679 -54.338724 129.997064 84.948162 -0.000003 -0.000019 0.000009 71.103990 0.329743 -0.200877 0.000002 -0.000007 3.006590 -5.000223 7.998989 -0.000128 -97.504953 -172.581805 3.285293 -179.999991 0.000004 -0.838004 104.208626 -4.042131 -5.793014 0.000003 -0.000001 1.557889 70.576802 8.498693 -2.321623 25.456955 -7.355615 0.000010 -97.560919 170.206484 -0.819602 -0.000020 -0.000004 -0.692234 -75.802519 1.580706 4.126827 -0.000002 0.000002 -1.556620 69.228468 -6.537911 -3.036913 25.456924 7.355235 0.000003 
51.930996 -19.427713 67.290604 26.764617 0.456613 0.788426 2.977500 -1.035680 0.025613 9.959130 -2.065173 0.114706 11.604634 -2.063675 0.139452 9.971985 12.910750 -11.784131 19.675697 -9.862479 -10.322312 -12.639087 -39.548496 -14.012962 -42.818514 -138.435804 -73.320360 0.000004 0.000028 0.000017 75.175186 -6.455626 1.431361 0.000006 0.000010 -2.999998 -5.000198 -7.999651 0.000043 -11.670047 56.137379 13.643778 -54.326993 129.981533 85.000297 -0.000004 -0.000019 0.000009 71.168987 0.303829 -0.185021 0.000002 -0.000007 3.006590 -5.000221 7.998987 -0.000130 -97.567675 -172.561888 3.296485 -179.999991 0.000005 -0.839998 104.071941 -3.994983 -5.776732 0.000003 -0.000001 1.567430 70.553204 8.505616 -2.335728 25.456955 -7.355613 0.000011 -97.602481 170.219748 -0.856004 -0.000022 -0.000005 -0.696360 -75.925967 1.550921 4.116485 -0.000002 0.000002 -1.562701 69.193860 -6.539171 -3.035289 25.456926 7.355236 0.000003 
